<svg xmlns="http://www.w3.org/2000/svg" xmlns:xlink="http://www.w3.org/1999/xlink" width="153.327" height="89.436" viewBox="0 0 153.327 89.436"><defs><clipPath id="clip-path"><rect id="矩形_2546" width="153.327" height="89.436" fill="none" data-name="矩形 2546"/></clipPath></defs><g id="UNITED_KINGDOM" data-name="UNITED KINGDOM" transform="translate(-156.151 -135.103)"><g id="组_8216" data-name="组 8216" transform="translate(156.151 135.103)"><g id="组_8215" data-name="组 8215" transform="translate(0 0)"><g id="组_8214" clip-path="url(#clip-path)" data-name="组 8214"><rect id="矩形_2545" width="153.327" height="89.436" fill="#fff" data-name="矩形 2545"/><path id="路径_2469" fill="#bd0034" d="M416.343,167.439l50.663-28.361V135.1h-3.493l-57.765,32.336Z" data-name="路径 2469" transform="translate(-313.679 -135.103)"/><path id="路径_2470" fill="#bd0034" d="M427.989,294.764l53.054,29.69v-5.933l-42.454-23.757Z" data-name="路径 2470" transform="translate(-327.717 -235.87)"/><path id="路径_2471" fill="#bd0034" d="M156.151,143.4l45.385,25.528h10.6l-55.989-31.466Z" data-name="路径 2471" transform="translate(-156.151 -136.592)"/><path id="路径_2472" fill="#bd0034" d="M209.736,294.764l-53.585,30.024v.518h9.681l54.513-30.542Z" data-name="路径 2472" transform="translate(-156.151 -235.87)"/><path id="路径_2473" fill="#1a237b" d="M451.52,135.1H397.837v30.065Z" data-name="路径 2473" transform="translate(-308.686 -135.103)"/><path id="路径_2474" fill="#1a237b" d="M242.094,135.1H188.625l53.469,30.065Z" data-name="路径 2474" transform="translate(-176.646 -135.103)"/><path id="路径_2475" fill="#1a237b" d="M509.508,187.66V167.142L473.09,187.66Z" data-name="路径 2475" transform="translate(-356.181 -155.324)"/><path id="路径_2476" fill="#1a237b" d="M509.508,315.063v-20.3H473.09Z" data-name="路径 2476" transform="translate(-356.181 -235.87)"/><path id="路径_2477" fill="#1a237b" d="M196.849,329.207h50.436V300.944Z" data-name="路径 2477" transform="translate(-181.837 -239.771)"/><path id="路径_2478" fill="#1a237b" d="M397.837,329.207h50.6l-50.6-28.262Z" data-name="路径 2478" transform="translate(-308.686 -239.771)"/><path id="路径_2479" fill="#1a237b" d="M156.151,294.764v21.213l37.685-21.213Z" data-name="路径 2479" transform="translate(-156.151 -235.87)"/><path id="路径_2480" fill="#1a237b" d="M156.151,186.415h37.685L156.151,165.17Z" data-name="路径 2480" transform="translate(-156.151 -154.08)"/><path id="路径_2481" fill="#bd0034" d="M226.341,135.1v37.649h-70.19V188.7h70.19v35.842h14.219V188.7h68.919V172.753H240.559V135.1Z" data-name="路径 2481" transform="translate(-156.151 -135.103)"/></g></g></g></g></svg>