<svg xmlns="http://www.w3.org/2000/svg" xmlns:xlink="http://www.w3.org/1999/xlink" width="153.327" height="89.436" viewBox="0 0 153.327 89.436">
  <defs>
    <clipPath id="clip-path">
      <rect id="矩形_2546" data-name="矩形 2546" width="153.327" height="89.436" fill="none"/>
    </clipPath>
  </defs>
  <g id="UNITED_KINGDOM" data-name="UNITED KINGDOM" transform="translate(-156.151 -135.103)">
    <g id="组_8216" data-name="组 8216" transform="translate(156.151 135.103)">
      <g id="组_8215" data-name="组 8215" transform="translate(0 0)">
        <g id="组_8214" data-name="组 8214" clip-path="url(#clip-path)">
          <rect id="矩形_2545" data-name="矩形 2545" width="153.327" height="89.436" fill="#fff"/>
          <path id="路径_2469" data-name="路径 2469" d="M416.343,167.439l50.663-28.361V135.1h-3.493l-57.765,32.336Z" transform="translate(-313.679 -135.103)" fill="#bd0034"/>
          <path id="路径_2470" data-name="路径 2470" d="M427.989,294.764l53.054,29.69v-5.933l-42.454-23.757Z" transform="translate(-327.717 -235.87)" fill="#bd0034"/>
          <path id="路径_2471" data-name="路径 2471" d="M156.151,143.4l45.385,25.528h10.6l-55.989-31.466Z" transform="translate(-156.151 -136.592)" fill="#bd0034"/>
          <path id="路径_2472" data-name="路径 2472" d="M209.736,294.764l-53.585,30.024v.518h9.681l54.513-30.542Z" transform="translate(-156.151 -235.87)" fill="#bd0034"/>
          <path id="路径_2473" data-name="路径 2473" d="M451.52,135.1H397.837v30.065Z" transform="translate(-308.686 -135.103)" fill="#1a237b"/>
          <path id="路径_2474" data-name="路径 2474" d="M242.094,135.1H188.625l53.469,30.065Z" transform="translate(-176.646 -135.103)" fill="#1a237b"/>
          <path id="路径_2475" data-name="路径 2475" d="M509.508,187.66V167.142L473.09,187.66Z" transform="translate(-356.181 -155.324)" fill="#1a237b"/>
          <path id="路径_2476" data-name="路径 2476" d="M509.508,315.063v-20.3H473.09Z" transform="translate(-356.181 -235.87)" fill="#1a237b"/>
          <path id="路径_2477" data-name="路径 2477" d="M196.849,329.207h50.436V300.944Z" transform="translate(-181.837 -239.771)" fill="#1a237b"/>
          <path id="路径_2478" data-name="路径 2478" d="M397.837,329.207h50.6l-50.6-28.262Z" transform="translate(-308.686 -239.771)" fill="#1a237b"/>
          <path id="路径_2479" data-name="路径 2479" d="M156.151,294.764v21.213l37.685-21.213Z" transform="translate(-156.151 -235.87)" fill="#1a237b"/>
          <path id="路径_2480" data-name="路径 2480" d="M156.151,186.415h37.685L156.151,165.17Z" transform="translate(-156.151 -154.08)" fill="#1a237b"/>
          <path id="路径_2481" data-name="路径 2481" d="M226.341,135.1v37.649h-70.19V188.7h70.19v35.842h14.219V188.7h68.919V172.753H240.559V135.1Z" transform="translate(-156.151 -135.103)" fill="#bd0034"/>
        </g>
      </g>
    </g>
  </g>
</svg>
